<svg xmlns="http://www.w3.org/2000/svg" xmlns:xlink="http://www.w3.org/1999/xlink" version="1.1" x="0px" y="0px" viewBox="0 0 90 90" style="enable-background:new 0 0 90 90;" xml:space="preserve"><g><path d="M-1717.3,85.6c-22.6,0-41-18.4-41-41c0-22.6,18.4-41,41-41c22.6,0,41,18.4,41,41C-1676.3,67.2-1694.7,85.6-1717.3,85.6z    M-1717.3,8.6c-19.8,0-36,16.1-36,36s16.1,36,36,36c19.8,0,36-16.1,36-36S-1697.5,8.6-1717.3,8.6z"/><path d="M-1717.3,75.9c-17.3,0-31.3-14-31.3-31.3s14-31.3,31.3-31.3s31.3,14,31.3,31.3S-1700,75.9-1717.3,75.9z M-1717.3,15.3   c-16.2,0-29.3,13.2-29.3,29.3c0,16.2,13.2,29.3,29.3,29.3s29.3-13.2,29.3-29.3C-1688,28.4-1701.1,15.3-1717.3,15.3z"/><path d="M-1688.3,38.4c-16.8-9-31.6-8.6-41.1-6.6c-10.3,2.1-16.7,6.5-16.8,6.5l-1.1-1.6c0.3-0.2,26.8-17.9,60-0.1L-1688.3,38.4z"/><path d="M-1723.7,75.1l-2-0.4c0-0.1,1.8-8.8-3.5-16.4c-5.3-7.5-17.3-5.7-17.4-5.7l-0.3-2c0.5-0.1,13.3-2,19.4,6.5   C-1721.7,65.5-1723.6,74.7-1723.7,75.1z"/><path d="M-1711.1,75.1c-0.1-0.4-2-9.6,3.9-18c6-8.5,18.8-6.6,19.4-6.5l-0.3,2c-0.1,0-12.1-1.8-17.4,5.7c-5.4,7.6-3.6,16.3-3.5,16.4   L-1711.1,75.1z"/><path d="M-1717.3,50.3c-3.1,0-5.7-2.6-5.7-5.7c0-3.1,2.6-5.7,5.7-5.7c3.2,0,5.7,2.6,5.7,5.7C-1711.6,47.8-1714.1,50.3-1717.3,50.3z    M-1717.3,40.9c-2,0-3.7,1.7-3.7,3.7c0,2,1.7,3.7,3.7,3.7s3.7-1.7,3.7-3.7C-1713.6,42.6-1715.3,40.9-1717.3,40.9z"/></g><path d="M-1804.1,36.6c-22.9-10.3-41.8-4.3-50.3-0.3c-1.3,3.1-2,6.6-2,10.2c0,2.3,0.3,4.5,0.8,6.6c4.3,0,11.1,1,14.9,6.4  c3.3,4.7,4.1,9.6,4.1,13.1c2.3,0.6,4.7,1,7.2,1c2.4,0,4.7-0.3,7-0.9c0-3.5,0.8-8.5,4.1-13.1c3.9-5.5,10.9-6.4,15.1-6.4  c0.5-2.1,0.8-4.3,0.8-6.6C-1802.3,42.9-1802.9,39.6-1804.1,36.6z M-1829.3,50.8c-2.6,0-4.8-2.1-4.8-4.8c0-2.6,2.1-4.8,4.8-4.8  c2.6,0,4.8,2.1,4.8,4.8C-1824.6,48.7-1826.7,50.8-1829.3,50.8z"/><path d="M-1829.3,5.7c-22.3,0-40.3,18.1-40.3,40.3s18.1,40.3,40.3,40.3c22.3,0,40.3-18.1,40.3-40.3S-1807.1,5.7-1829.3,5.7z   M-1829.3,76.8c-17,0-30.8-13.8-30.8-30.8s13.8-30.8,30.8-30.8c17,0,30.8,13.8,30.8,30.8S-1812.3,76.8-1829.3,76.8z"/><path d="M-1572.1,74.3c-4.6,1.3-10.7,2-17.1,2c-6.4,0-12.3-0.7-16.9-2c-2.7-0.7-5-1.7-6-2.7v1.8c0,3.5,10.2,6.4,23,6.4  s23-2.9,23-6.4v-1.7C-1567,72.6-1569.4,73.5-1572.1,74.3z"/><ellipse cx="-1601.2" cy="32.9" rx="3.6" ry="4.8"/><path d="M-1438.7,24.6L-1438.7,24.6c-0.1-0.6,0.1-1.1,0.6-1.5l6.3-5.9c0.7-0.7,1.9-0.6,2.6,0.1v0c0.6,0.7,0.6,1.8-0.1,2.5l-6.3,5.9  C-1436.8,26.7-1438.5,26.1-1438.7,24.6z"/><path d="M-1424,43h-11.1c-1,0-1.9-0.8-2-1.8v0c-0.1-1.2,0.8-2.2,2-2.2h11.1c1.1,0,2,0.9,2,2v0C-1422,42.1-1422.9,43-1424,43z"/><path d="M-1427.9,61.5l-6.7-3.2c-0.6-0.3-1-0.8-1-1.5l0-0.1c-0.1-1.4,1.3-2.3,2.6-1.7l6.7,3.3c0.9,0.4,1.3,1.5,0.8,2.4v0  C-1426,61.5-1427.1,61.9-1427.9,61.5z"/><path d="M-1477.7,24.6L-1477.7,24.6c0.1-0.6-0.1-1.1-0.6-1.5l-6.3-5.9c-0.7-0.7-1.9-0.6-2.6,0.1v0c-0.6,0.7-0.6,1.8,0.1,2.5l6.3,5.9  C-1479.6,26.7-1477.8,26.1-1477.7,24.6z"/><path d="M-1492,43h10.7c1,0,1.9-0.8,2-1.8v0c0.1-1.2-0.8-2.2-2-2.2h-10.7c-1.1,0-2,0.9-2,2v0C-1494,42.1-1493.1,43-1492,43z"/><path d="M-1488.4,61.5l6.7-3.2c0.6-0.3,1-0.8,1-1.5l0-0.1c0.1-1.4-1.3-2.3-2.6-1.7l-6.7,3.3c-0.9,0.4-1.3,1.5-0.8,2.4v0  C-1490.3,61.5-1489.3,61.9-1488.4,61.5z"/><path d="M-1457.9,72.8c-13.6,0.2-18.9-4.9-20.5-7c-0.2-0.2-0.6-0.1-0.6,0.2v3.8c0,4.3,9.4,7.8,20.5,7.8s20.5-3.5,20.5-7.8v-2.5  c0-0.3-0.4-0.5-0.6-0.2C-1441.3,70.4-1448.7,72.6-1457.9,72.8z"/><path d="M-1441.6,61l-3.4-34c0-0.4-0.5-0.6-0.8-0.4c-2.9,1.9-7.7,2.8-12.2,2.8c-4.5,0-9.3-0.9-12.2-2.8c-0.3-0.2-0.8,0-0.8,0.4  l-3.7,36c0,0.1,0,0,0,0.1l0-0.1h0c0,0,0,0.2,0,0.2c0,3.6,7.5,6.6,16.7,6.6s16.7-2.9,16.7-6.5C-1441.3,62.8-1441.3,62.1-1441.6,61z"/><ellipse cx="-1458" cy="21.9" rx="12.5" ry="4.9"/><path d="M-1586,61.1v-4.8c11-1.8,19.9-11.6,19.9-23.5c0-13.1-10.7-23.8-23.8-23.8s-23.8,10.6-23.8,23.8c0,12.1,8.7,22.1,20.7,23.6  v4.7c-11,0.5-18.9,3.1-18.9,6.2c0,3.5,10.3,6.3,22.9,6.3s23-2.8,23-6.3C-1566,64.2-1575,61.5-1586,61.1z M-1600.7,44.1  c-4.6,0-8.4-5-8.4-11.2c0-6.2,3.8-11.2,8.4-11.2s8.4,5,8.4,11.2C-1592.3,39.1-1596.1,44.1-1600.7,44.1z"/><path d="M-1293.9,32c0-0.9,0-0.4,0-0.5c0-4.8-3.5-8.8-9.1-8.8V32H-1293.9z"/><path d="M-1311.9,32c0,5.1,4.9,9.3,8.9,9.3V32C-1303,32-1311.9,31.9-1311.9,32z"/><path d="M-1290.8,31.6c0,6.8-5.5,12.2-12.2,12.2s-12.2-5.5-12.2-12.2s5.5-12.2,12.2-12.2S-1290.8,24.9-1290.8,31.6z M-1286.4,49.4  c3.9,0.2,7.7-1.8,9.7-5.2c1.7-3,2.7-6.2,2.7-9.5c0-16.4-12.5-29.6-29.3-29.6c-19.6,0-31.5,13.3-31.5,29.6c0,0-0.6,1.6-0.7,1.9  l-6.1,10.7c-0.6,1.1-0.1,2.4,1,2.9l2.7,1c0.6,0.2,0.8,0.9,0.5,1.4l-1,1.8c-0.3,0.5-0.2,1.2,0.2,1.6l0.8,1c0.2,0.3,0.3,0.7,0,1  l-0.6,0.8c-0.5,0.7-0.3,1.7,0.5,2.2l0.7,0.4c0.5,0.3,0.7,0.8,0.7,1.3l-0.1,6c-0.1,3.1,3.1,5.1,5.9,3.9l19.6-9  c1.4-0.6,2.4-1.8,2.8-3.3l2.9-9.6c0.4-1.3,1.7-2.2,3.1-2.2L-1286.4,49.4z"/><path d="M-1302.3,56.5l11.2,0.9c0.6,0,1.1-0.3,1.3-0.9l0.5-1.8c0.2-0.8-0.3-1.5-1.1-1.6l-11.2-0.8c-0.6,0-1.1,0.3-1.3,0.9l-0.5,1.7  C-1303.6,55.7-1303.1,56.5-1302.3,56.5z"/><path d="M-1305.4,64.5l13.2-0.7c0.6,0,1.1-0.5,1.2-1.1l0.2-1.3c0.1-0.7-0.5-1.4-1.2-1.4l-12.1-0.6c-0.4,0-0.7,0.2-0.8,0.6l-0.6,2.2  c-0.1,0.4-0.3,0.7-0.5,0.9v0C-1306.5,63.7-1306.1,64.6-1305.4,64.5z"/><path d="M-1319.7,75.6l27.6-5.4c0.5-0.1,0.8-0.5,0.8-1l0-1.9c0-0.6-0.5-1-1.1-1l-23.1,2.5c-0.1,0-0.2,0-0.3,0.1l-4.7,2.2  c-0.4,0.2-0.6,0.6-0.6,1l0.2,2.5C-1320.8,75.2-1320.2,75.7-1319.7,75.6z"/><path d="M-1317.1,85.9l26.1-9.4c0.4-0.2,0.7-0.6,0.6-1.1l-0.4-2c-0.1-0.6-0.7-0.9-1.2-0.8l-27,6.8c-0.5,0.1-0.8,0.7-0.7,1.2l1.3,4.6  C-1318.2,85.8-1317.6,86.1-1317.1,85.9z"/><path d="M-1129,53.7c-1.5,24.9-12,26.9-12.5,26.8c-0.4-0.1-4.9,0.6-13.6-12.9c-8.1-12.6-22.9-11.9-28.6-12c-4.2-0.1-12.5-0.1-17.5,0  c-2.2,0-4-1.8-4-4v-4.2v-6.6v-4.1c0-2.2,1.8-4,4-4c5,0,13.4,0.1,17.6,0c5.7-0.1,20.6,0.6,28.6-12c8.6-13.5,13-12.8,13.4-12.9  c0.5-0.1,11,1.3,12.5,26.7C-1128.7,39.1-1128.7,48.8-1129,53.7z M-1140.7,14.3c-3.8,0-7,9.2-7.9,21.6c2.7,1.8,4.5,4.8,4.5,8.3  c0,3.4-1.7,6.5-4.4,8.2c1,11.9,4.2,20.6,7.9,20.6c4.6,0,8.2-13.2,8.2-29.4S-1136.2,14.3-1140.7,14.3z"/><path d="M-1191.8,64.4l4,13.3c0.5,1.6,2,2.7,3.6,2.7h6.6c2.1,0,3.8-1.7,3.8-3.8v-0.2c0-1.6-0.8-3.2-2.2-4.1l-2-1.3  c-1.4-0.9-2.2-2.5-2.1-4.2l0.2-2.9c0.1-1.8-1.3-3.4-3.2-3.4h-5.9C-1190.9,60.5-1192.3,62.4-1191.8,64.4z"/><path d="M-867.9,21.5c-0.5-0.7-1.4-0.8-2.1-0.3c-3.9,2.9-9,2.1-14.5,0.2c-5.6-10.8-16.8-18.2-29.7-18.2c-18.4,0-33.4,15-33.4,33.4  s15,33.4,33.4,33.4c0.5,0,1.1,0,1.6,0l13.7,13.6c2.2,2.2,5.1,3.4,8.1,3.4c3.1,0,6-1.2,8.2-3.4l5-5c4.5-4.5,4.5-11.9-0.1-16.4l-8.1-8  c3.2-5.2,4.9-11.2,4.9-17.4c0-4.1-0.7-8-2.1-11.6c5.3,1.5,10.4,1.8,14.7-1.4C-867.5,23.1-867.4,22.1-867.9,21.5z M-889,19.7  c-0.7-0.3-1.3-0.5-2-0.8c0,0,0,0-0.1,0c0.4-0.2,0.8-0.3,1.1-0.5C-889.6,18.8-889.3,19.3-889,19.7z M-890.5,17.6  c-0.6,0.3-1.2,0.5-1.8,0.8c-3.1-1.2-6.3-2.5-9.5-3.3c-1.7-3.5-3.8-6.4-6.2-8.3C-901,8.3-894.9,12.2-890.5,17.6z M-898.5,38h-21.6  c-1.3-2.4-2.3-5-2.5-7.5c-0.2-2.7,0.5-5.1,2.1-7.3c2,0.2,4.1,0.3,6.2,0.3c4.3,0,9-0.4,13.9-1.6c1.2,4.4,1.9,9.3,1.9,14.6  C-898.5,37-898.5,37.5-898.5,38z M-912,66.4c-1.6-1.6-2.5-3.8-2.5-6c0-2.3,0.9-4.4,2.5-6.1l1.7-1.7c0.1,0,0.2-0.1,0.3-0.1l1.8,1.8  c-0.9,0.9-0.8,2.3,0,3.2l2.7,2.6c0.4,0.4,1,0.7,1.6,0.7c0.6,0,1.2-0.2,1.6-0.7l2.3,2.3l-8,8L-912,66.4z M-944.6,39h12.1  c0.2,4,0.7,7.8,1.6,11.2c-4.1,0.9-7.2,2-9.1,2.7C-942.5,48.8-944.2,44.1-944.6,39z M-931.5,39h8.5c2.1,3.9,5,7.3,7.4,9.7  c-5.4-0.1-10.3,0.5-14.3,1.3C-930.7,46.7-931.3,42.9-931.5,39z M-931.5,36.5c0-5.4,0.7-10.4,2-14.8c1.7,0.4,3.6,0.8,5.7,1.1  c-1.4,2.4-2,5.1-1.8,7.9c0.2,2.5,1,5,2.1,7.3h-8C-931.5,37.5-931.5,37-931.5,36.5z M-914.2,6.2c1.3,0,2.6,0.1,3.9,0.3  c2.8,1.6,5.3,4.5,7.3,8.4c-6.5-1.4-13-0.9-18.5,5c-0.6,0.7-1.2,1.4-1.6,2.1c-2.2-0.3-4.2-0.7-6-1.1c2-6.5,5.2-11.5,9.1-13.9  C-918.3,6.4-916.3,6.2-914.2,6.2z M-914.5,49.7c0.5,0.5,1,1,1.4,1.3l-1.1,1.1c-2.2,2.2-3.4,5.1-3.4,8.2c0,2.4,0.8,4.7,2.1,6.6  c-1.5-0.1-3-0.2-4.4-0.5c-4.3-2.5-7.8-8.1-9.8-15.5C-925.4,50.2-920.3,49.6-914.5,49.7z M-902.2,58.4l-0.9,0.9  c-0.5,0.5-1.3,0.5-1.8,0l-2.7-2.6c-0.5-0.5-0.5-1.3,0-1.8l0.9-0.9c0.2-0.2,0.6-0.4,0.9-0.4c0.3,0,0.7,0.1,0.9,0.4l2.7,2.6  c0.2,0.2,0.4,0.6,0.4,0.9C-901.8,57.9-901.9,58.2-902.2,58.4z M-899.3,61.7l-2.3-2.3l0.2-0.2c0.4-0.4,0.7-1,0.7-1.6  c0-0.6-0.2-1.2-0.7-1.6l-2.7-2.6c-0.9-0.9-2.4-0.8-3.2,0l-0.2,0.2l-1.8-1.8c0-0.1,0-0.1,0.1-0.2l2.3-2.3c1.6-1.6,3.8-2.5,6.1-2.5  c2.3,0,4.4,0.9,6,2.5l4.1,4L-899.3,61.7z M-901,43.7c-3.1,0-6,1.2-8.2,3.4l-1.8,1.8c-1.9-1.7-5.8-5.4-8.5-9.9h21  c-0.1,1.6-0.2,3.3-0.4,4.9C-899.6,43.8-900.3,43.7-901,43.7z M-919.8,22.2c0.1-0.1,0.2-0.3,0.4-0.4c5.1-5.5,11.2-5.5,17.8-3.6  c0.3,0.9,0.6,1.8,0.9,2.7C-907.6,22.5-914.1,22.7-919.8,22.2z M-900.4,18.6c1.2,0.4,2.5,0.8,3.7,1.3c-1,0.3-2,0.6-3,0.8  C-900,20-900.2,19.3-900.4,18.6z M-922.5,7.3c-3.2,2.8-5.9,7.5-7.7,13.1c-3.6-0.9-6.4-2-8-2.6C-934.2,12.9-928.8,9.1-922.5,7.3z   M-938.8,18.7c1.6,0.7,4.4,1.8,8.3,2.8c-1.3,4.5-2,9.6-2,15.1c0,0.5,0,1,0,1.5h-12.1c0-0.5,0-0.9,0-1.4  C-944.7,29.9-942.5,23.7-938.8,18.7z M-939.3,53.8c1.8-0.7,4.8-1.7,8.8-2.5c1.8,6.5,4.7,11.7,8.3,14.7  C-929.3,64-935.3,59.6-939.3,53.8z M-879.7,76.3l-5,5c-1.6,1.6-3.8,2.5-6.1,2.5c-2.3,0-4.4-0.9-6-2.5l-10.4-10.4l17.1-17.1  l10.4,10.3C-876.4,67.5-876.4,73-879.7,76.3z M-892.8,47.1c-1.5-1.4-3.2-2.4-5.2-3c0.2-1.7,0.4-3.4,0.4-5.1h13.6  c-0.4,4.6-1.7,8.9-4,12.9L-892.8,47.1z M-883.8,36.6c0,0.5,0,0.9-0.1,1.4h-13.6c0-0.5,0-1,0-1.5c0-5.4-0.7-10.4-2-14.9  c1.4-0.3,2.8-0.8,4.2-1.2c1,0.4,2.1,0.8,3.2,1.2c1.8,0.7,3.6,1.4,5.4,2.1C-884.9,27.7-883.8,32-883.8,36.6z"/><path d="M-782.3,82.5c-3.8,0-7.4-1.5-10.1-4.2l-19.4-19.2c-2.7-2.7-4.2-6.3-4.3-10.2c0-3.8,1.5-7.5,4.2-10.2l6.4-6.5  c2.7-2.7,6.4-4.3,10.2-4.3c3.8,0,7.4,1.5,10.1,4.2l19.4,19.2c5.6,5.6,5.7,14.7,0.1,20.4l-6.4,6.5C-774.8,81-778.5,82.5-782.3,82.5z   M-795.3,31c-3.1,0-5.9,1.2-8.1,3.4l-6.4,6.5c-2.1,2.2-3.3,5-3.3,8.1c0,3,1.2,5.9,3.4,8l19.4,19.2c2.1,2.1,5,3.3,8,3.3  c3.1,0,5.9-1.2,8.1-3.4l6.4-6.5c4.4-4.5,4.4-11.7-0.1-16.1l-19.4-19.2C-789.5,32.2-792.3,31-795.3,31z"/><path d="M-804.4,63.2c-0.1,0-0.3,0-0.4-0.1c-0.2-0.2-0.2-0.5,0-0.7l23.4-23.4c0.2-0.2,0.5-0.2,0.7,0s0.2,0.5,0,0.7l-23.4,23.4  C-804.2,63.2-804.3,63.2-804.4,63.2z"/><path d="M-799.2,49.2c-0.7,0-1.4-0.3-1.9-0.8l-3.4-3.4c-1.1-1.1-1.1-2.8,0-3.9l1.1-1.1c1-1,2.9-1.1,3.9,0l3.4,3.4  c0.5,0.5,0.8,1.2,0.8,2s-0.3,1.4-0.8,2l-1.1,1.1C-797.7,48.9-798.4,49.2-799.2,49.2z M-801.5,40.2c-0.5,0-0.9,0.2-1.3,0.5l-1.1,1.1  c-0.7,0.7-0.7,1.8,0,2.5l3.4,3.4c0.7,0.7,1.8,0.7,2.5,0l1.1-1.1c0.3-0.3,0.5-0.8,0.5-1.2c0-0.5-0.2-0.9-0.5-1.2l-3.4-3.4  C-800.5,40.4-801,40.2-801.5,40.2z"/><path d="M-793.2,52c-0.1,0-0.3,0-0.4-0.1l-3.5-3.5c-0.2-0.2-0.2-0.5,0-0.7s0.5-0.2,0.7,0l3.5,3.5c0.2,0.2,0.2,0.5,0,0.7  C-792.9,52-793.1,52-793.2,52z"/><path d="M-804.2,41.2c-0.1,0-0.3,0-0.4-0.1l-4-4c-0.2-0.2-0.2-0.5,0-0.7s0.5-0.2,0.7,0l4,4c0.2,0.2,0.2,0.5,0,0.7  C-803.9,41.1-804.1,41.2-804.2,41.2z"/><g><path d="M-1002.6,24h-38.4v-5.2c0-2.1-2.1-3.8-4.2-3.8h-4.8V9.8c0-2.1-1.9-3.7-4-3.7s-4,1.7-4,3.7V15h-0.6c-2.1,0-3.4,1.7-3.4,3.8   V24h-3.8l0,0c-3,0.3-5.2,2.9-5.2,5.9v44.8c0,3.3,2.3,6.3,5.6,6.3h62.7c3.3,0,5.6-3,5.6-6.3V30C-997,26.7-999.3,24-1002.6,24z    M-1059,18.8c0-0.4,0-0.8,0.4-0.8h3.6V9.8c0-0.4,0.6-0.7,1-0.7s1,0.3,1,0.7V18h7.8c0.4,0,1.2,0.4,1.2,0.8V68c0,0.4-0.8,1-1.2,1   h-13.4c-0.4,0-0.4-0.6-0.4-1V18.8z M-1000,74.7c0,1.6-1,3.3-2.6,3.3h-62.7c-1.6,0-2.6-1.6-2.6-3.3V30c0-1.5,0.8-3,2.2-3h3.8v41   c0,2.1,1.3,4,3.4,4h13.4c2.1,0,4.2-1.9,4.2-4V27h38.4c1.6,0,2.6,1.3,2.6,3V74.7z"/><path d="M-1027.3,64.2c-2.1,0-3.9,1.7-3.9,3.9s1.7,3.9,3.9,3.9s3.9-1.7,3.9-3.9S-1025.2,64.2-1027.3,64.2z M-1027.3,70.9   c-1.6,0-2.9-1.3-2.9-2.9c0-1.6,1.3-2.9,2.9-2.9c1.6,0,2.9,1.3,2.9,2.9C-1024.4,69.6-1025.7,70.9-1027.3,70.9z"/><path d="M-1027.3,55.2c-2.1,0-3.9,1.7-3.9,3.9s1.7,3.9,3.9,3.9s3.9-1.7,3.9-3.9S-1025.2,55.2-1027.3,55.2z M-1027.3,61.9   c-1.6,0-2.9-1.3-2.9-2.9c0-1.6,1.3-2.9,2.9-2.9c1.6,0,2.9,1.3,2.9,2.9C-1024.4,60.6-1025.7,61.9-1027.3,61.9z"/><path d="M-1027.3,46.3c-2.1,0-3.9,1.7-3.9,3.9s1.7,3.9,3.9,3.9s3.9-1.7,3.9-3.9S-1025.2,46.3-1027.3,46.3z M-1027.3,53   c-1.6,0-2.9-1.3-2.9-2.9c0-1.6,1.3-2.9,2.9-2.9c1.6,0,2.9,1.3,2.9,2.9C-1024.4,51.7-1025.7,53-1027.3,53z"/><path d="M-1018.3,64.2c-2.1,0-3.9,1.7-3.9,3.9s1.7,3.9,3.9,3.9s3.9-1.7,3.9-3.9S-1016.2,64.2-1018.3,64.2z M-1018.3,70.9   c-1.6,0-2.9-1.3-2.9-2.9c0-1.6,1.3-2.9,2.9-2.9c1.6,0,2.9,1.3,2.9,2.9C-1015.5,69.6-1016.7,70.9-1018.3,70.9z"/><path d="M-1018.3,55.2c-2.1,0-3.9,1.7-3.9,3.9s1.7,3.9,3.9,3.9s3.9-1.7,3.9-3.9S-1016.2,55.2-1018.3,55.2z M-1018.3,61.9   c-1.6,0-2.9-1.3-2.9-2.9c0-1.6,1.3-2.9,2.9-2.9c1.6,0,2.9,1.3,2.9,2.9C-1015.5,60.6-1016.7,61.9-1018.3,61.9z"/><path d="M-1018.3,46.3c-2.1,0-3.9,1.7-3.9,3.9s1.7,3.9,3.9,3.9s3.9-1.7,3.9-3.9S-1016.2,46.3-1018.3,46.3z M-1018.3,53   c-1.6,0-2.9-1.3-2.9-2.9c0-1.6,1.3-2.9,2.9-2.9c1.6,0,2.9,1.3,2.9,2.9C-1015.5,51.7-1016.7,53-1018.3,53z"/><path d="M-1009.4,64.2c-2.1,0-3.9,1.7-3.9,3.9s1.7,3.9,3.9,3.9s3.9-1.7,3.9-3.9S-1007.2,64.2-1009.4,64.2z M-1009.4,70.9   c-1.6,0-2.9-1.3-2.9-2.9c0-1.6,1.3-2.9,2.9-2.9c1.6,0,2.9,1.3,2.9,2.9C-1006.5,69.6-1007.8,70.9-1009.4,70.9z"/><path d="M-1009.4,55.2c-2.1,0-3.9,1.7-3.9,3.9s1.7,3.9,3.9,3.9s3.9-1.7,3.9-3.9S-1007.2,55.2-1009.4,55.2z M-1009.4,61.9   c-1.6,0-2.9-1.3-2.9-2.9c0-1.6,1.3-2.9,2.9-2.9c1.6,0,2.9,1.3,2.9,2.9C-1006.5,60.6-1007.8,61.9-1009.4,61.9z"/><path d="M-1009.4,46.3c-2.1,0-3.9,1.7-3.9,3.9s1.7,3.9,3.9,3.9s3.9-1.7,3.9-3.9S-1007.2,46.3-1009.4,46.3z M-1009.4,53   c-1.6,0-2.9-1.3-2.9-2.9c0-1.6,1.3-2.9,2.9-2.9c1.6,0,2.9,1.3,2.9,2.9C-1006.5,51.7-1007.8,53-1009.4,53z"/><path d="M-1005,36.7c0-1.5-1.2-2.7-2.7-2.7h-20.5c-1.5,0-2.7,1.2-2.7,2.7v4.5c0,1.5,1.2,2.7,2.7,2.7h20.5c1.5,0,2.7-1.2,2.7-2.7   V36.7z M-1006,41.3c0,1-0.8,1.7-1.7,1.7h-20.5c-1,0-1.7-0.8-1.7-1.7v-4.5c0-1,0.8-1.7,1.7-1.7h20.5c1,0,1.7,0.8,1.7,1.7V41.3z"/></g><g><path d="M-642.2,11.3c-1.2-0.6-2.7-0.1-3.3,1.2c-0.6,1.2-0.1,2.7,1.2,3.3c19.4,9.4,27.8,32.2,19.1,51.9c-0.6,1.3,0,2.7,1.3,3.3   c0.3,0.1,0.7,0.2,1,0.2c1,0,1.9-0.6,2.3-1.5C-610.9,47.5-620.3,21.8-642.2,11.3z"/><path d="M-648.1,21.1l-0.3-0.2c-1-0.5-2.2,0-2.7,1c-0.5,1,0,2.2,1,2.7l0.3,0.1c15,7.1,21.6,25.1,14.6,40.2c-0.5,1,0,2.2,1,2.7   c0.3,0.1,0.6,0.2,0.8,0.2c0.8,0,1.5-0.4,1.8-1.2C-623.7,49.5-631.1,29.1-648.1,21.1z"/><path d="M-652.5,30.5l-0.3-0.2c-0.8-0.3-1.6,0-2,0.7c-0.3,0.8,0,1.6,0.7,2l0.3,0.1c10.3,4.9,14.9,17.3,10.1,27.7   c-0.3,0.8,0,1.6,0.7,2c0.2,0.1,0.4,0.1,0.6,0.1c0.6,0,1.1-0.3,1.4-0.9C-635.5,50.3-640.7,36-652.5,30.5z"/><path d="M-667,48.2c-3.2,0-5.8,2.6-5.8,5.8c0,3.2,2.6,5.8,5.8,5.8s5.8-2.6,5.8-5.8C-661.2,50.8-663.8,48.2-667,48.2z M-667,55.7   c-1,0-1.8-0.8-1.8-1.8s0.8-1.8,1.8-1.8s1.8,0.8,1.8,1.8S-666,55.7-667,55.7z"/><path d="M-667,34.3c-10.8,0-19.7,8.8-19.7,19.7c0,10.8,8.8,19.7,19.7,19.7s19.7-8.8,19.7-19.7C-647.3,43.1-656.1,34.3-667,34.3z    M-667,69.7c-8.6,0-15.7-7-15.7-15.7c0-8.6,7-15.7,15.7-15.7s15.7,7,15.7,15.7C-651.3,62.6-658.4,69.7-667,69.7z"/><circle cx="-667" cy="42" r="1.4"/></g><path d="M-755.3,41.1c-3.3,0-6.4-1.3-8.8-3.6l-22.5-22.5c-5.7-5.7-14.9-5.7-20.6,0c-2.8,2.8-4.3,6.4-4.3,10.3  c0,3.9,1.5,7.5,4.3,10.3c0.6,0.6,0.6,1.5,0,2.1s-1.5,0.6-2.1,0c-3.3-3.3-5.1-7.7-5.1-12.4c0-4.7,1.8-9.1,5.1-12.4  c6.9-6.9,18-6.9,24.9,0l22.5,22.5c1.8,1.8,4.1,2.8,6.7,2.8c2.5,0,4.9-1,6.7-2.8l2.1,2.1C-748.8,39.8-752,41.1-755.3,41.1z"/><g><path d="M-545.7,50.2c-3.2,0-5.8,2.6-5.8,5.8c0,3.2,2.6,5.8,5.8,5.8s5.8-2.6,5.8-5.8C-540,52.8-542.5,50.2-545.7,50.2z    M-545.7,57.7c-1,0-1.8-0.8-1.8-1.8s0.8-1.8,1.8-1.8S-544,55-544,56S-544.7,57.7-545.7,57.7z"/><path d="M-545.7,36.3c-10.8,0-19.7,8.8-19.7,19.7c0,10.8,8.8,19.7,19.7,19.7S-526,66.8-526,56C-526,45.1-534.9,36.3-545.7,36.3z    M-545.7,71.7c-8.6,0-15.7-7-15.7-15.7s7-15.7,15.7-15.7s15.7,7,15.7,15.7S-537.1,71.7-545.7,71.7z"/><circle cx="-545.7" cy="44" r="1.4"/><path d="M-496.2,34.1c0-0.5,0-0.9,0-1.3c0-8.9-7.3-16.2-16.2-16.2c-6.6,0-12.3,3.9-14.8,9.8c-1.6-1.2-3.7-1.9-5.7-1.9   c-4.2,0-7.9,2.7-9.2,6.7c-0.3,1.1,0.3,2.2,1.3,2.5c1.1,0.3,2.2-0.3,2.5-1.3c0.7-2.4,2.9-3.9,5.4-3.9c2,0,3.8,1,4.8,2.7   c0.4,0.7,1.2,1.1,2,0.9l0.1,0c0.8-0.1,1.5-0.8,1.7-1.6c1.1-5.7,6.1-9.9,12-9.9c6.7,0,12.2,5.5,12.2,12.2c0,0.5,0,1.1,0,1.6   c0,1.7,0,3.5,2,3.6c7,0.2,12.1,5.2,12.1,12c0,6.6-5.2,12-11.6,12H-522c-1.1,0-2,0.9-2,2s0.9,2,2,2h24.2c8.6,0,15.6-7.2,15.6-16   C-482.2,41.6-488,35.2-496.2,34.1z"/></g><circle cx="-373.6" cy="70.1" r="4.3"/><path d="M-371.6,82.6H-406c-6.9,0-12.5-5.6-12.5-12.5s5.6-12.5,12.5-12.5h34.4c6.9,0,12.5,5.6,12.5,12.5  S-364.7,82.6-371.6,82.6z M-406,61.9c-4.5,0-8.2,3.7-8.2,8.2s3.7,8.2,8.2,8.2h34.4c4.5,0,8.2-3.7,8.2-8.2s-3.7-8.2-8.2-8.2H-406z"/><path d="M-359.6,73.5l-3.9-1.8l5.6-12c1-2.1,0.8-4.6-0.4-6.5c-1.3-2-3.4-3.2-5.7-3.2h-36.2c-2.1,0-4.1,1.1-5.2,3  l-7.9,13.6l-3.7-2.2l7.9-13.6c1.8-3.2,5.3-5.1,8.9-5.1h36.2c3.8,0,7.3,1.9,9.4,5.2c2.1,3.2,2.3,7.2,0.7,10.7L-359.6,73.5z"/><path d="M-357,43.4c-0.5,0-0.9-0.2-1.3-0.5c-3.3-2.6-4.8-6.9-3.8-11c0.2-0.8,0.3-1.4,0.3-2.1c0-5.1-4.1-9.2-9.2-9.2  c-2.1,0-4.2,0.7-5.8,2.1c-0.9,0.8-2.3,0.6-3-0.3c-0.8-0.9-0.6-2.3,0.3-3c2.4-2,5.5-3.1,8.6-3.1c7.5,0,13.5,6.1,13.5,13.5  c0,1-0.1,2-0.4,3.1c-0.6,2.4,0.3,5,2.3,6.6c0.9,0.7,1.1,2.1,0.3,3C-355.8,43.1-356.4,43.4-357,43.4z"/><path d="M-347.2,56c-0.4,0-0.9-0.1-1.2-0.4c-1-0.7-1.2-2-0.5-3c1.3-1.9,2-4.1,2-6.5c0-4.1-2.2-7.8-5.8-9.8  c-0.8-0.5-1.3-1.4-1-2.4c0.3-1.4,0.5-2.8,0.5-4.1c0-9.8-8-17.8-17.8-17.8c-8.8,0-16.4,6.6-17.6,15.3c-0.1,0.7-0.5,1.3-1.2,1.6  c-0.6,0.3-1.4,0.3-2-0.1c-2.2-1.3-4.8-2-7.4-2c-8.2,0-14.9,6.7-14.9,14.9c0,1.7,0.3,3.4,0.8,4.9c0.4,1.1-0.2,2.4-1.3,2.8  c-1.1,0.4-2.4-0.2-2.8-1.3c-0.7-2-1.1-4.2-1.1-6.4c0-10.6,8.6-19.2,19.2-19.2c2.3,0,4.7,0.4,6.9,1.3c2.6-9.4,11.3-16.2,21.3-16.2  c12.2,0,22.2,9.9,22.2,22.2c0,1.2-0.1,2.4-0.3,3.6c4.1,2.9,6.6,7.7,6.6,12.7c0,3.2-1,6.3-2.8,9C-345.9,55.7-346.5,56-347.2,56z"/><circle cx="44" cy="56.8" r="2.7"/><path d="M43.5,51.1c-1.2,0-2.5-1-2.5-2.2v-3.6c0-1.2,1.4-2.3,2.6-2.3h2.8c2.9,0,5.3-2.6,5.3-5.9c0-3.1-2.9-5.9-6-5.9  c-2.9,0-6.1,2-6.3,4.9c-0.1,1.2-1.1,2.1-2.3,2c-1.2-0.1-2.1-1.1-2-2.3c0.3-5,5-9,10.6-9c5.5,0,10.3,4.6,10.3,10c0,5.7-4.3,10-9.6,10  H46v1.9C46,50.1,44.7,51.1,43.5,51.1z"/><path d="M67.4,76.8c-0.5,0-1-0.1-1.4-0.3c-8.7-3.9-12.8-5.7-13.8-6H35c-14.8,0-27.1-12.1-27.4-26.9  c-0.1-7.2,2.7-14.1,7.9-19.4c5.3-5.4,12.7-8.5,20.2-8.5h16.4c7.4,0,14.7,3,19.9,8.3c5.1,5.1,7.9,11.9,7.8,19  c-0.1,8.8-4.3,16.9-11.4,22c0.8,2.8,1.7,5.6,2.2,7.5c0.4,1.3,0,2.6-1,3.5C69,76.6,68.2,76.8,67.4,76.8z M35.7,20.1  c-6.4,0-12.6,2.6-17.1,7.2c-4.4,4.4-6.7,10.2-6.6,16.2C12.2,56,22.5,66.2,35,66.2h17.5c0.6,0,1.1,0,13.4,5.6  c-0.6-2.1-1.4-4.6-2.1-7.1c-0.3-0.9,0.1-1.9,0.9-2.4C71.4,58,75.4,50.8,75.5,43v0c0-6-2.3-11.6-6.6-15.9c-4.4-4.5-10.6-7-16.8-7  H35.7z"/><path d="M27.4,60c-0.3,0-0.7-0.1-1-0.2c-6.2-3.2-10.1-9.6-10.1-16.6c0-2.5,0.5-4.9,1.4-7.2c0.5-1.1,1.7-1.6,2.8-1.2  c1.1,0.5,1.6,1.7,1.2,2.8c-0.7,1.8-1.1,3.6-1.1,5.5c0,5.4,3,10.3,7.8,12.8c1.1,0.6,1.5,1.9,0.9,2.9C28.9,59.6,28.2,60,27.4,60z"/><path d="M178.1,72.7c-6.7,0-11.1-2.3-11.4-2.4l-1.1-0.6l0-1.3c-0.6-32.6-0.4-32.8,0.6-33.7l0.7-0.7l1,0.1  c16.7,1.7,34.7-0.3,42.1-2c10.5-2.4,16.7-0.4,19.4,1c1.4,0.7,2.2,2.1,2.2,3.6v28.8c0,1-0.4,1.9-1.1,2.5c-0.7,0.7-1.7,1-2.6,0.9  c-19.1-1.5-29.8-0.1-42.8,3C182.5,72.4,180.2,72.7,178.1,72.7z M169.8,66.9c2.2,0.8,7.5,2.3,14.1,0.8c13.3-3.2,24.2-4.6,43.2-3.1  V36.8c-1.9-0.9-7.1-2.6-16.4-0.5c-5.3,1.2-22.7,3.9-41.2,2.3C169.5,43.7,169.7,57.3,169.8,66.9z"/><path d="M238,58.4c-1.2,0-2.2-1-2.2-2.2V27.5c0-0.3-0.2-0.5-0.4-0.6c-3.5-1-12.8-3.3-22.5-1  c-0.6,0.1-1.2,0.3-1.9,0.4c-6.6,1.5-15.6,3.7-32.1,2c-1.2-0.1-2.1-1.2-1.9-2.4s1.2-2.1,2.4-1.9c15.8,1.6,24-0.3,30.7-1.9  c0.7-0.2,1.3-0.3,1.9-0.4c10.7-2.4,20.9,0,24.7,1.1c2.1,0.6,3.5,2.5,3.5,4.7v28.7C240.2,57.4,239.2,58.4,238,58.4z"/><path d="M213,57h-0.4c-3.4,0-6.2-2.8-6.2-6.2v0c0-3.4,2.8-6.2,6.2-6.2h0.4c3.4,0,6.2,2.8,6.2,6.2v0  C219.2,54.2,216.4,57,213,57z"/><path d="M182.6,62.2c-3.7,0-5.9-0.9-6-1c-1.1-0.5-1.6-1.7-1.2-2.8c0.5-1.1,1.7-1.6,2.8-1.2c0.1,0,4.5,1.7,11.3-0.5  c3.1-1,5.9-1.7,8.2-2.2c1.2-0.2,2.3,0.5,2.5,1.7c0.2,1.2-0.5,2.3-1.7,2.5c-2.2,0.4-4.8,1.1-7.7,2.1  C187.6,61.8,184.9,62.2,182.6,62.2z"/><circle cx="-237.3" cy="67.3" r="4.3"/><path d="M-235.3,79.8h-34.4c-6.9,0-12.5-5.6-12.5-12.5s5.6-12.5,12.5-12.5h34.4c6.9,0,12.5,5.6,12.5,12.5  S-228.4,79.8-235.3,79.8z M-269.7,59.1c-4.5,0-8.2,3.7-8.2,8.2c0,4.5,3.7,8.2,8.2,8.2h34.4c4.5,0,8.2-3.7,8.2-8.2  c0-4.5-3.7-8.2-8.2-8.2H-269.7z"/><path d="M-223.3,70.7l-3.9-1.8l5.6-12c1-2.1,0.8-4.6-0.4-6.5c-1.3-2-3.4-3.2-5.7-3.2h-36.2c-2.1,0-4.1,1.1-5.2,3  l-7.9,13.6l-3.7-2.2L-273,48c1.8-3.2,5.3-5.1,8.9-5.1h36.2c3.8,0,7.3,1.9,9.4,5.2c2.1,3.2,2.3,7.2,0.7,10.7L-223.3,70.7z"/><path d="M-270.6,35.7h-7.8c-1.2,0-2.2-1-2.2-2.2V17.9c0-1.2,1-2.2,2.2-2.2h7.8c5.5,0,10,4.5,10,10  S-265.1,35.7-270.6,35.7z M-276.3,31.4h5.7c3.1,0,5.7-2.5,5.7-5.7s-2.5-5.7-5.7-5.7h-5.7V31.4z"/><path d="M-254.6,35.7c-1.2,0-2.2-1-2.2-2.2V19.9c0-1.6,0.9-3,2.3-3.5c1.3-0.5,2.8-0.2,3.8,0.9l11.8,12.8V17.9  c0-1.2,1-2.2,2.2-2.2s2.2,1,2.2,2.2v13.9c0,1.6-0.9,3-2.3,3.5c-1.3,0.5-2.8,0.2-3.8-0.9l-11.8-12.8v12  C-252.4,34.8-253.4,35.7-254.6,35.7z"/><path d="M-216.5,35.6h-10.9c-1.2,0-2.2-1-2.2-2.2s1-2.2,2.2-2.2h10.9c1.1,0,1.9-0.9,1.9-1.9c0-1.1-0.9-1.9-1.9-1.9  h-7.7c-3.2,0-5.8-2.6-5.8-5.8c0-3.2,2.6-5.8,5.8-5.8h10c1.2,0,2.2,1,2.2,2.2s-1,2.2-2.2,2.2h-10c-0.8,0-1.5,0.7-1.5,1.5  c0,0.8,0.7,1.5,1.5,1.5h7.7c3.4,0,6.2,2.8,6.2,6.2S-213.1,35.6-216.5,35.6z"/><path d="M-69,77.1h-57.4c-5.2,0-9.5-4.3-9.5-9.5V33.4h76.4v34.2C-59.5,72.8-63.8,77.1-69,77.1z M-131.6,37.7v29.8  c0,2.9,2.3,5.2,5.2,5.2H-69c2.9,0,5.2-2.3,5.2-5.2V37.7H-131.6z"/><path d="M-60.4,37.7h-75.6v-14c0-3.7,3-6.6,6.6-6.6h18c1.9,0,3.7,0.7,5.1,1.9l3.1,2.6c1.2,1.1,2.8,1.6,4.4,1.6h31.4  c3.9,0,7,3.1,7,7V37.7z M-131.6,33.4h66.9v-3.2c0-1.5-1.2-2.7-2.7-2.7h-31.4c-2.7,0-5.2-0.9-7.2-2.7l-3.1-2.6  c-0.6-0.5-1.4-0.8-2.3-0.8h-18c-1.3,0-2.3,1-2.3,2.3V33.4z"/><path d="M-73.2,66h-50.5c-1.2,0-2.2-0.8-2.2-2c0-1.2,1-2,2.2-2h50.5c1.2,0,2.2,0.8,2.2,2C-71,65.2-72,66-73.2,66z"/><text x="0" y="105" fill="#000000" font-size="5px" font-weight="bold" font-family="'Helvetica Neue', Helvetica, Arial-Unicode, Arial, Sans-serif">Created by Petr Papasov</text><text x="0" y="110" fill="#000000" font-size="5px" font-weight="bold" font-family="'Helvetica Neue', Helvetica, Arial-Unicode, Arial, Sans-serif">from the Noun Project</text></svg>